<?xml version="1.0" encoding="iso-8859-1"?>
<!-- Generator: Adobe Illustrator 19.0.0, SVG Export Plug-In . SVG Version: 6.00 Build 0)  -->
<svg version="1.1" id="Layer_1" xmlns="http://www.w3.org/2000/svg" xmlns:xlink="http://www.w3.org/1999/xlink" x="0px" y="0px"
	 viewBox="0 0 512 512" style="enable-background:new 0 0 512 512;" xml:space="preserve">
<g>
	<g>
		<path d="M512,150.974V19.692H380.718v45.949H249.437v170.667h-91.899v-59.077H0v157.538h157.538v-59.077h91.899v170.667h131.281
			v45.949H512V361.026H380.718v45.949h-91.896V275.692h91.896v45.949H512V190.359H380.718v45.949h-91.896V105.026h91.896v45.949H512
			z M420.103,59.077h52.513v52.513h-52.513V59.077z M118.154,295.385H39.385v-78.769h78.769V295.385z M420.103,400.41h52.513v52.513
			h-52.513V400.41z M420.103,229.744h52.513v52.513h-52.513V229.744z" fill="#888888"/>
	</g>
</g>
<g>
</g>
<g>
</g>
<g>
</g>
<g>
</g>
<g>
</g>
<g>
</g>
<g>
</g>
<g>
</g>
<g>
</g>
<g>
</g>
<g>
</g>
<g>
</g>
<g>
</g>
<g>
</g>
<g>
</g>
</svg>
