<?xml version="1.0" encoding="UTF-8" standalone="no"?>
<svg
   xmlns:dc="http://purl.org/dc/elements/1.1/"
   xmlns:cc="http://creativecommons.org/ns#"
   xmlns:rdf="http://www.w3.org/1999/02/22-rdf-syntax-ns#"
   xmlns:svg="http://www.w3.org/2000/svg"
   xmlns="http://www.w3.org/2000/svg"
   xmlns:sodipodi="http://sodipodi.sourceforge.net/DTD/sodipodi-0.dtd"
   xmlns:inkscape="http://www.inkscape.org/namespaces/inkscape"
   viewBox="0 0 32 32"
   version="1.1"
   id="svg4536"
   sodipodi:docname="plan-preview.svg"
   inkscape:version="0.92.3 (2405546, 2018-03-11)">
  <metadata
     id="metadata4542">
    <rdf:RDF>
      <cc:Work
         rdf:about="">
        <dc:format>image/svg+xml</dc:format>
        <dc:type
           rdf:resource="http://purl.org/dc/dcmitype/StillImage" />
        <dc:title></dc:title>
      </cc:Work>
    </rdf:RDF>
  </metadata>
  <defs
     id="defs4540" />
  <sodipodi:namedview
     pagecolor="#ffffff"
     bordercolor="#666666"
     borderopacity="1"
     objecttolerance="10"
     gridtolerance="10"
     guidetolerance="10"
     inkscape:pageopacity="0"
     inkscape:pageshadow="2"
     inkscape:window-width="1098"
     inkscape:window-height="806"
     id="namedview4538"
     showgrid="false"
     inkscape:zoom="14.75"
     inkscape:cx="13.934803"
     inkscape:cy="16.188475"
     inkscape:window-x="731"
     inkscape:window-y="45"
     inkscape:window-maximized="0"
     inkscape:current-layer="svg4536" />
  <g
     id="g5149"
     style="fill:#424242;fill-opacity:1">
    <rect
       width="17.369692"
       height="6.4495058"
       x="4.1775208"
       y="4.9560614"
       id="rect4528"
       style="fill:#424242;fill-opacity:1" />
    <path
       id="path5144"
       d="m 19.261719,19.943359 h 9.43164 V 13.494141 H 14.738281 a 6.3869619,6.0479784 0 0 1 0.06445,0.01563 6.3869619,6.0479784 0 0 1 0.59961,0.207031 6.3869619,6.0479784 0 0 1 0.574218,0.263672 6.3869619,6.0479784 0 0 1 0.544922,0.316406 6.3869619,6.0479784 0 0 1 0.507813,0.365234 6.3869619,6.0479784 0 0 1 0.466797,0.41211 6.3869619,6.0479784 0 0 1 0.421875,0.455078 6.3869619,6.0479784 0 0 1 0.371093,0.490234 6.3869619,6.0479784 0 0 1 0.31836,0.525391 6.3869619,6.0479784 0 0 1 0.259766,0.550781 6.3869619,6.0479784 0 0 1 0.203124,0.574219 6.3869619,6.0479784 0 0 1 0.138672,0.589844 6.3869619,6.0479784 0 0 1 0.07813,0.599609 6.3869619,6.0479784 0 0 1 0.01563,0.429687 6.3869619,6.0479784 0 0 1 -0.0332,0.603516 6.3869619,6.0479784 0 0 1 -0.0078,0.05078 z"
       style="fill:#424242;fill-opacity:1"
       inkscape:connector-curvature="0" />
    <rect
       width="7.0358243"
       height="6.4495058"
       x="21.657148"
       y="22.032583"
       id="rect4532"
       style="fill:#424242;fill-opacity:1" />
  </g>
  <path
     inkscape:connector-curvature="0"
     style="clip-rule:evenodd;fill:#424242;fill-rule:evenodd;stroke-width:2"
     d="m 12.795786,14.543794 c -0.8378,0.03142 -1.6526,0.269992 -2.375,0.695312 h -0.0625 c -0.5787996,0.34912 -1.0807616,0.811334 -1.4765616,1.359374 -0.3958,0.54804 -0.67482,1.172712 -0.82422,1.832032 -0.14936,0.65934 -0.167754,1.338706 -0.04688,2.003906 0.1208,0.6652 0.3782,1.302586 0.75,1.867186 l -4.7226562,4.69922 1.421875,1.417968 4.6992188,-4.71875 c 0.6502,0.441 1.398486,0.716582 2.179688,0.800782 0.7698,0.0944 1.552448,0.0034 2.281248,-0.26172 0.757602,-0.2548 1.443202,-0.684612 2,-1.257812 0.5402,-0.565 0.937958,-1.2506 1.160158,-2 0.2162,-0.7468 0.264424,-1.53318 0.14062,-2.300782 -0.139,-0.768178 -0.455674,-1.494872 -0.921874,-2.121092 -0.466,-0.63412 -1.07725,-1.14828 -1.78125,-1.5 -0.7524,-0.37002 -1.584076,-0.547044 -2.421876,-0.515624 z m -0.39453,2.054686 c 0.576398,-0.11766 1.17395,-0.06182 1.718748,0.16016 0.5522,0.23394 1.023976,0.624094 1.359376,1.121094 0.3844,0.57704 0.556682,1.270938 0.488282,1.960938 -0.0684,0.69 -0.373082,1.334018 -0.863282,1.824218 -0.4904,0.4904 -1.134218,0.794882 -1.824218,0.863282 -0.69,0.0684 -1.383738,-0.10368 -1.960938,-0.488282 -0.497,-0.3354 -0.887094,-0.807376 -1.121094,-1.359376 -0.2219996,-0.545 -0.2777556,-1.146056 -0.16016,-1.722656 0.113,-0.583958 0.399712,-1.118482 0.820312,-1.539062 0.4206,-0.4206 0.958968,-0.707392 1.54297,-0.820312 z"
     id="path5116" />
</svg>
