<?xml version="1.0" encoding="UTF-8" standalone="no"?>
<!-- Generator: Adobe Illustrator 19.2.1, SVG Export Plug-In . SVG Version: 6.00 Build 0)  -->

<svg
   xmlns:dc="http://purl.org/dc/elements/1.1/"
   xmlns:cc="http://creativecommons.org/ns#"
   xmlns:rdf="http://www.w3.org/1999/02/22-rdf-syntax-ns#"
   xmlns:svg="http://www.w3.org/2000/svg"
   xmlns="http://www.w3.org/2000/svg"
   xmlns:sodipodi="http://sodipodi.sourceforge.net/DTD/sodipodi-0.dtd"
   xmlns:inkscape="http://www.inkscape.org/namespaces/inkscape"
   version="1.1"
   id="layer"
   x="0px"
   y="0px"
   viewBox="0 0 148.8 149.2"
   xml:space="preserve"
   sodipodi:docname="slack-technologies-seeklogo.com.svg"
   inkscape:version="0.92.3 (2405546, 2018-03-11)"
   width="148.8"
   height="149.2"><metadata
   id="metadata19"><rdf:RDF><cc:Work
       rdf:about=""><dc:format>image/svg+xml</dc:format><dc:type
         rdf:resource="http://purl.org/dc/dcmitype/StillImage" /></cc:Work></rdf:RDF></metadata><defs
   id="defs17" /><sodipodi:namedview
   pagecolor="#ffffff"
   bordercolor="#666666"
   borderopacity="1"
   objecttolerance="10"
   gridtolerance="10"
   guidetolerance="10"
   inkscape:pageopacity="0"
   inkscape:pageshadow="2"
   inkscape:window-width="907"
   inkscape:window-height="648"
   id="namedview15"
   showgrid="false"
   inkscape:zoom="0.36196319"
   inkscape:cx="-46.445762"
   inkscape:cy="-165.73051"
   inkscape:window-x="0"
   inkscape:window-y="0"
   inkscape:window-maximized="0"
   inkscape:current-layer="layer" />
<style
   type="text/css"
   id="style2">
	.st0{fill:#36C5F0;}
	.st1{fill:#2EB67D;}
	.st2{fill:#ECB22E;}
	.st3{fill:#E01E5A;}
</style>

<path
   class="st0"
   d="m 54.5,0.1 c -8.2,0 -14.9,6.7 -14.9,14.9 0,8.2 6.7,14.9 14.9,14.9 0,0 0,0 0,0 H 69.4 V 15 C 69.4,6.8 62.8,0.1 54.5,0.1 m 0,39.7 H 14.9 C 6.7,39.8 0,46.5 0,54.7 0,62.9 6.7,69.6 14.9,69.6 h 39.7 c 8.2,0 14.9,-6.7 14.9,-14.9 -0.1,-8.2 -6.7,-14.9 -15,-14.9"
   id="path6"
   inkscape:connector-curvature="0"
   style="fill:#36c5f0" />
<path
   class="st1"
   d="m 148.8,54.7 c 0,-8.2 -6.7,-14.9 -14.9,-14.9 -8.2,0 -14.9,6.7 -14.9,14.9 v 14.9 h 14.9 c 8.2,0.1 14.9,-6.6 14.9,-14.9 m -39.7,0 V 14.9 C 109.1,6.7 102.4,0 94.199996,0 86,0 79.3,6.7 79.3,14.9 v 39.8 c 0,8.2 6.7,14.9 14.899996,14.9 C 102.5,69.7 109.1,63 109.1,54.7"
   id="path8"
   inkscape:connector-curvature="0"
   style="fill:#2eb67d" />
<path
   class="st2"
   d="M 94.199996,149.2 C 102.4,149.2 109.1,142.5 109.1,134.3 c 0,-8.2 -6.7,-14.9 -14.900004,-14.9 H 79.3 v 14.9 c 0,8.2 6.7,14.9 14.899996,14.9 m 0,-39.8 H 133.9 c 8.2,0 14.9,-6.7 14.9,-14.900002 C 148.8,86.3 142.1,79.6 133.9,79.6 H 94.199996 C 86,79.6 79.3,86.3 79.3,94.499998 79.3,102.7 86,109.4 94.199996,109.4 c 0,0 0,0 0,0"
   id="path10"
   inkscape:connector-curvature="0"
   style="fill:#ecb22e" />
<path
   class="st3"
   d="M 0,94.499998 C 0,102.7 6.7,109.4 14.9,109.4 c 0,0 0,0 0,0 8.2,0 14.9,-6.7 14.9,-14.900002 V 79.6 H 14.9 C 6.6,79.6 0,86.3 0,94.499998 m 39.7,0 V 134.3 c 0,8.2 6.7,14.9 14.9,14.9 8.2,0 14.9,-6.7 14.9,-14.9 V 94.499998 C 69.5,86.3 62.8,79.6 54.6,79.6 c 0,0 0,0 0,0 -8.3,0 -14.9,6.7 -14.9,14.899998"
   id="path12"
   inkscape:connector-curvature="0"
   style="fill:#e01e5a" />
</svg>